# xmcd
#
# Track frame offsets:
#	183
#	18058
#	44683
#
# Disc length: 885 seconds
#
# Revision: 2
# Processed by: cddbd v1.5.1PL0 Copyright (c) Steve Scherf et al.
# Submitted via: EasyCDDAExtractor 8.0.1.1
#
DISCID=1b037303
DTITLE=Pat Mears - Look For You [CD single)
DYEAR=1991
DGENRE=Other
TTITLE0=Look For You
TTITLE1=Just Experience
TTITLE2=Look For You
EXTD=
EXTT0=
EXTT1=
EXTT2=
PLAYORDER=
